<svg width="171" height="46" viewBox="0 0 171 46" fill="none" xmlns="http://www.w3.org/2000/svg">
<path d="M32.9629 19.6629H18.5816C18.4032 19.6631 18.2323 19.7335 18.1062 19.8587C17.9802 19.9839 17.9093 20.1536 17.9092 20.3306V27.3101C17.9092 27.6784 18.2105 27.9781 18.5812 27.9781H24.1918V36.6496C24.1918 36.6496 22.932 37.0759 19.4492 37.0759C15.3402 37.0759 9.60005 35.5854 9.60005 23.0567C9.60005 10.5253 15.5774 8.8767 21.1886 8.8767C26.0458 8.8767 28.1385 9.72539 29.4698 10.1345C29.8883 10.2618 30.2754 9.84838 30.2754 9.47973L31.8795 2.73601C31.8795 2.56362 31.8207 2.35609 31.6226 2.2152C31.0819 1.8323 27.7832 0 19.4489 0C9.84853 0 0 4.05446 0 23.5453C0 43.0369 11.2753 45.9413 20.7772 45.9413C28.6442 45.9413 33.4165 42.6043 33.4165 42.6043C33.6135 42.4965 33.6346 42.2237 33.6346 42.0984V20.3306C33.6346 19.9626 33.3336 19.6629 32.9629 19.6629ZM107.041 2.43964C107.041 2.06834 106.744 1.76864 106.373 1.76864H98.2752C98.1868 1.76899 98.0993 1.78662 98.0178 1.82053C97.9362 1.85444 97.8622 1.90396 97.7999 1.96627C97.7376 2.02858 97.6883 2.10245 97.6548 2.18367C97.6213 2.26489 97.6042 2.35187 97.6046 2.43964L97.6066 17.9732H84.9847V2.43997C84.9847 2.06867 84.6867 1.76898 84.3164 1.76898H76.2186C76.0402 1.76994 75.8696 1.84117 75.7441 1.96699C75.6187 2.09282 75.5487 2.26294 75.5496 2.43997V44.5002C75.5496 44.8715 75.8502 45.1732 76.2186 45.1732H84.316C84.6864 45.1732 84.984 44.8715 84.984 44.5002V26.5094H97.6063L97.5842 44.4999C97.5842 44.8712 97.8848 45.1729 98.2549 45.1729H106.372C106.743 45.1729 107.039 44.8712 107.04 44.4999V2.43997L107.041 2.43964ZM48.2173 8.06316C48.2173 5.16902 45.8794 2.82983 42.9955 2.82983C40.1142 2.82983 37.7746 5.16868 37.7746 8.06316C37.7746 10.954 40.1142 13.2995 42.9955 13.2995C45.8794 13.2995 48.2173 10.954 48.2173 8.06316ZM47.5747 35.6494V16.2344C47.5753 16.0574 47.505 15.8874 47.3794 15.7618C47.2538 15.6362 47.0831 15.5652 46.9048 15.5644H38.8327C38.4623 15.5644 38.1313 15.9437 38.1313 16.3123V44.1283C38.1313 44.9458 38.6443 45.1888 39.3086 45.1888H46.5811C47.3794 45.1888 47.5747 44.7999 47.5747 44.115V35.6494ZM137.99 15.5647H129.954C129.585 15.5647 129.285 15.8661 129.285 16.237V36.8607C129.285 36.8607 127.244 38.3433 124.346 38.3433C121.449 38.3433 120.68 37.0381 120.68 34.2222V16.2374C120.68 15.8661 120.381 15.5644 120.012 15.5644H111.856C111.488 15.5644 111.187 15.8661 111.187 16.2374V35.5841C111.187 43.9482 115.884 45.9947 122.344 45.9947C127.645 45.9947 131.918 43.0883 131.918 43.0883C131.918 43.0883 132.122 44.6199 132.214 44.8016C132.306 44.9829 132.546 45.1656 132.805 45.1656L137.993 45.143C138.361 45.143 138.663 44.841 138.663 44.4717L138.66 16.237C138.661 16.0597 138.591 15.8893 138.465 15.7632C138.339 15.6372 138.168 15.5658 137.99 15.5647ZM156.504 38.3592C153.717 38.275 151.826 37.0195 151.826 37.0195V23.6995C151.826 23.6995 153.692 22.5647 155.98 22.3618C158.873 22.1046 161.662 22.9722 161.662 29.8243C161.662 37.0497 160.403 38.4759 156.504 38.3592ZM159.674 14.6613C155.11 14.6613 152.005 16.6826 152.005 16.6826V2.43964C152.006 2.35202 151.989 2.26514 151.956 2.18397C151.923 2.10281 151.874 2.02895 151.812 1.96662C151.749 1.9043 151.676 1.85473 151.594 1.82076C151.513 1.78679 151.426 1.76908 151.337 1.76864H143.217C143.128 1.76903 143.041 1.78671 142.959 1.82065C142.878 1.85459 142.804 1.90413 142.742 1.96645C142.68 2.02876 142.63 2.10263 142.597 2.18382C142.564 2.26501 142.547 2.35194 142.547 2.43964V44.4999C142.547 44.8712 142.847 45.1729 143.218 45.1729H148.852C149.106 45.1729 149.298 45.0436 149.44 44.8158C149.58 44.5897 149.782 42.8764 149.782 42.8764C149.782 42.8764 153.102 46 159.388 46C166.768 46 171 42.2844 171 29.3197C171 16.3551 164.241 14.6613 159.674 14.6613ZM70.8812 15.4918H64.807L64.7976 7.52643C64.7976 7.22509 64.6413 7.07425 64.29 7.07425H56.0125C55.6906 7.07425 55.5179 7.21481 55.5179 7.52179V15.7534C55.5179 15.7534 51.3698 16.7473 51.0893 16.8275C50.9494 16.8678 50.8264 16.9521 50.739 17.0677C50.6515 17.1833 50.6043 17.324 50.6043 17.4686V22.6413C50.6043 23.0133 50.9036 23.3133 51.274 23.3133H55.5179V35.7571C55.5179 44.9998 62.0493 45.9078 66.4569 45.9078C68.4708 45.9078 70.8798 45.2657 71.2776 45.1202C71.5181 45.0323 71.6577 44.7853 71.6577 44.5168L71.6644 38.8266C71.6644 38.4557 71.3487 38.1553 70.9931 38.1553C70.639 38.1553 69.7339 38.2982 68.8014 38.2982C65.818 38.2982 64.807 36.9211 64.807 35.1388L64.8067 23.3136H70.8812C70.9697 23.3133 71.0572 23.2956 71.1388 23.2616C71.2205 23.2276 71.2945 23.1779 71.3567 23.1155C71.419 23.053 71.4682 22.979 71.5015 22.8976C71.5349 22.8162 71.5518 22.7291 71.5511 22.6413V16.1625C71.5511 15.7912 71.2516 15.4918 70.8812 15.4918Z" fill="#D9D9D9"/>
</svg>
