<svg width="84" height="82" viewBox="0 0 84 82" fill="none" xmlns="http://www.w3.org/2000/svg">
<path d="M42.0047 3.52374e-06C18.797 -0.00940662 0 18.8297 0 42.0822C0 60.4696 11.7587 76.0998 28.1345 81.84C30.3398 82.3952 30.002 80.8237 30.002 79.751V72.4581C17.2673 73.9543 16.7512 65.504 15.8972 64.0925C14.1705 61.1377 10.0883 60.3849 11.3082 58.9734C14.208 57.4772 17.1641 59.3498 20.5894 64.4219C23.0669 68.1012 27.8999 67.4801 30.3492 66.8685C30.8841 64.6571 32.029 62.681 33.6056 61.1471C20.4111 58.7758 14.9119 50.7019 14.9119 41.1035C14.9119 36.4455 16.4415 32.1639 19.4445 28.7104C17.5301 23.0172 19.6228 18.1428 19.9044 17.4182C25.3567 16.9289 31.0249 21.3328 31.466 21.681C34.5628 20.8435 38.1008 20.4012 42.061 20.4012C46.04 20.4012 49.5873 20.8623 52.7123 21.7092C53.7728 20.8999 59.028 17.1171 64.0956 17.5782C64.3678 18.3027 66.4136 23.0643 64.6118 28.6821C67.6523 32.1451 69.2008 36.4643 69.2008 41.1317C69.2008 50.7489 63.664 58.8322 50.4319 61.1659C51.5653 62.2836 52.4652 63.6165 53.0791 65.0867C53.693 66.557 54.0085 68.1352 54.0074 69.7292V80.3156C54.0824 81.1625 54.0074 82 55.415 82C72.0349 76.3821 84 60.639 84 42.0916C84 18.8297 65.1936 3.52374e-06 42.0047 3.52374e-06Z" fill="#F5F5F5"/>
</svg>
